<mxfile host="app.diagrams.net" modified="2021-12-29T03:38:56.861Z" agent="5.0 (Windows NT 10.0; Win64; x64) AppleWebKit/537.36 (KHTML, like Gecko) Chrome/91.0.4472.77 Safari/537.36" etag="Q4BOOqT-EUR_mMHPR7nB" version="16.1.0" type="github">
  <diagram id="TXc0ZN0mHyiC_g4xZ6er" name="Page-1">
    <mxGraphModel dx="1422" dy="800" grid="1" gridSize="10" guides="1" tooltips="1" connect="1" arrows="1" fold="1" page="1" pageScale="1" pageWidth="1920" pageHeight="1200" math="0" shadow="0">
      <root>
        <mxCell id="0" />
        <mxCell id="1" parent="0" />
        <mxCell id="fe4fFD9pops---J5xfhx-6" style="edgeStyle=orthogonalEdgeStyle;rounded=0;orthogonalLoop=1;jettySize=auto;html=1;exitX=1;exitY=0.5;exitDx=0;exitDy=0;" edge="1" parent="1" source="fe4fFD9pops---J5xfhx-1" target="fe4fFD9pops---J5xfhx-2">
          <mxGeometry relative="1" as="geometry" />
        </mxCell>
        <mxCell id="fe4fFD9pops---J5xfhx-1" value="Yolo目标检测算法" style="rounded=0;whiteSpace=wrap;html=1;" vertex="1" parent="1">
          <mxGeometry x="70" y="190" width="120" height="60" as="geometry" />
        </mxCell>
        <mxCell id="fe4fFD9pops---J5xfhx-7" style="edgeStyle=orthogonalEdgeStyle;rounded=0;orthogonalLoop=1;jettySize=auto;html=1;exitX=1;exitY=0.5;exitDx=0;exitDy=0;" edge="1" parent="1" source="fe4fFD9pops---J5xfhx-2" target="fe4fFD9pops---J5xfhx-3">
          <mxGeometry relative="1" as="geometry" />
        </mxCell>
        <mxCell id="fe4fFD9pops---J5xfhx-2" value="检测框初步坐标" style="rounded=1;whiteSpace=wrap;html=1;" vertex="1" parent="1">
          <mxGeometry x="250" y="190" width="120" height="60" as="geometry" />
        </mxCell>
        <mxCell id="fe4fFD9pops---J5xfhx-8" style="edgeStyle=orthogonalEdgeStyle;rounded=0;orthogonalLoop=1;jettySize=auto;html=1;exitX=1;exitY=0.5;exitDx=0;exitDy=0;entryX=0;entryY=0.5;entryDx=0;entryDy=0;" edge="1" parent="1" source="fe4fFD9pops---J5xfhx-3" target="fe4fFD9pops---J5xfhx-4">
          <mxGeometry relative="1" as="geometry" />
        </mxCell>
        <mxCell id="fe4fFD9pops---J5xfhx-3" value="Roi区域提取" style="rounded=1;whiteSpace=wrap;html=1;" vertex="1" parent="1">
          <mxGeometry x="410" y="190" width="120" height="60" as="geometry" />
        </mxCell>
        <mxCell id="fe4fFD9pops---J5xfhx-9" style="edgeStyle=orthogonalEdgeStyle;rounded=0;orthogonalLoop=1;jettySize=auto;html=1;exitX=1;exitY=0.5;exitDx=0;exitDy=0;entryX=0;entryY=0.5;entryDx=0;entryDy=0;" edge="1" parent="1" source="fe4fFD9pops---J5xfhx-4" target="fe4fFD9pops---J5xfhx-5">
          <mxGeometry relative="1" as="geometry" />
        </mxCell>
        <mxCell id="fe4fFD9pops---J5xfhx-4" value="边缘检测" style="rounded=1;whiteSpace=wrap;html=1;" vertex="1" parent="1">
          <mxGeometry x="580" y="190" width="120" height="60" as="geometry" />
        </mxCell>
        <mxCell id="fe4fFD9pops---J5xfhx-13" style="edgeStyle=orthogonalEdgeStyle;rounded=0;orthogonalLoop=1;jettySize=auto;html=1;exitX=1;exitY=0.5;exitDx=0;exitDy=0;entryX=0;entryY=0.5;entryDx=0;entryDy=0;" edge="1" parent="1" source="fe4fFD9pops---J5xfhx-5" target="fe4fFD9pops---J5xfhx-12">
          <mxGeometry relative="1" as="geometry" />
        </mxCell>
        <mxCell id="fe4fFD9pops---J5xfhx-5" value="直线过滤" style="rounded=1;whiteSpace=wrap;html=1;" vertex="1" parent="1">
          <mxGeometry x="730" y="190" width="120" height="60" as="geometry" />
        </mxCell>
        <mxCell id="fe4fFD9pops---J5xfhx-12" value="基于相交性定位框点" style="rounded=1;whiteSpace=wrap;html=1;" vertex="1" parent="1">
          <mxGeometry x="900" y="190" width="120" height="60" as="geometry" />
        </mxCell>
        <mxCell id="fe4fFD9pops---J5xfhx-14" value="基于检测框4点坐标局部图像扩展" style="text;html=1;strokeColor=none;fillColor=none;align=center;verticalAlign=middle;whiteSpace=wrap;rounded=0;" vertex="1" parent="1">
          <mxGeometry x="410" y="260" width="110" height="50" as="geometry" />
        </mxCell>
        <mxCell id="fe4fFD9pops---J5xfhx-15" value="基于边缘检测算法定位直线" style="text;html=1;strokeColor=none;fillColor=none;align=center;verticalAlign=middle;whiteSpace=wrap;rounded=0;" vertex="1" parent="1">
          <mxGeometry x="585" y="260" width="110" height="50" as="geometry" />
        </mxCell>
      </root>
    </mxGraphModel>
  </diagram>
</mxfile>
